<?xml version="1.0" standalone="no"?><!DOCTYPE svg PUBLIC "-//W3C//DTD SVG 1.1//EN" "http://www.w3.org/Graphics/SVG/1.1/DTD/svg11.dtd"><svg t="1678788698852" class="icon" viewBox="0 0 1024 1024" version="1.1" xmlns="http://www.w3.org/2000/svg" p-id="2818" xmlns:xlink="http://www.w3.org/1999/xlink" width="128" height="128"><path d="M512 927c229.2 0 415-185.8 415-415S741.2 97 512 97 97 282.8 97 512s185.8 415 415 415z m176.2-278c10.8 10.8 10.8 28.3 0 39.1-5.4 5.4-12.5 8.1-19.6 8.1-7.1 0-14.2-2.7-19.6-8.1l-137-137-137 137c-5.4 5.4-12.5 8.1-19.6 8.1s-14.2-2.7-19.6-8.1c-10.8-10.8-10.8-28.3 0-39.1l137-137-137-137c-10.8-10.8-10.8-28.3 0-39.1s28.3-10.8 39.1 0l137 137 137-137c10.8-10.8 28.3-10.8 39.1 0s10.8 28.3 0 39.1L551 512l137.2 137z" p-id="2819" fill="#ffffff"></path></svg>