<?xml version="1.0" standalone="no"?><!DOCTYPE svg PUBLIC "-//W3C//DTD SVG 1.1//EN" "http://www.w3.org/Graphics/SVG/1.1/DTD/svg11.dtd"><svg t="1678793101171" class="icon" viewBox="0 0 1024 1024" version="1.1" xmlns="http://www.w3.org/2000/svg" p-id="6828" id="mx_n_1678793101172" xmlns:xlink="http://www.w3.org/1999/xlink" width="128" height="128"><path d="M684.387097 93.419355c6.193548-15.483871 18.580645-24.774194 36.645161-27.354839l260.645161-1.032258V11.354839l-274.580645 1.548387c-36.645161-4.129032-60.903226 13.935484-76.903226 46.451613L591.483871 185.806452c-2.064516 7.225806-6.709677 10.322581-14.451613 10.838709l-418.580645 0.516129 54.709677 817.032258H707.096774l48.516129-817.548387h-87.741935c-9.290323 1.032258-12.387097-4.645161-9.806452-17.032258l26.322581-86.193548z m-155.870968 322.064516c-2.064516 5.677419-5.677419 8.774194-12.387097 8.774194l-273.032258 3.096774c-8.774194 0.516129-13.419355-3.612903-16-11.870968l-7.741935-154.322581c0.516129-4.129032 3.096774-6.193548 7.741935-6.193548l333.419355-0.516129c5.16129 0.516129 7.741935 4.129032 8.774194 9.806452l-40.774194 151.225806z m158.451613-160.516129c7.225806-0.516129 9.290323 2.064516 11.870968 9.806452l-7.741936 150.709677c-0.516129 4.129032-3.096774 6.709677-8.258064 6.709677l-82.580645 1.032258c-5.16129-0.516129-7.741935-4.129032-8.774194-9.806451l42.322581-150.193549c2.064516-5.677419 6.193548-8.774194 12.387096-8.774193l40.774194 0.516129z" fill="#ffffff" p-id="6829"></path></svg>